{
  "accessors": [
    {
      "bufferView": 2,
      "componentType": 5126,
      "count": 5827,
      "max": [
        0.390529990196228,
        1.25,
        0.7904000282287598
      ],
      "min": [
        -0.390529990196228,
        -1.25,
        -0.7904000282287598
      ],
      "type": "VEC3"
    },
    {
      "bufferView": 2,
      "byteOffset": 69924,
      "componentType": 5126,
      "count": 5827,
      "max": [
        1.0,
        0.9999662041664124,
        0.9998714327812195
      ],
      "min": [
        -0.9999807476997375,
        -0.9999289512634277,
        -0.9999997019767761
      ],
      "type": "VEC3"
    },
    {
      "bufferView": 1,
      "componentType": 5126,
      "count": 5827,
      "max": [
        0.9984999895095825,
        0.9933000206947327
      ],
      "min": [
        0.004999999888241291,
        0.0007999999797903001
      ],
      "type": "VEC2"
    },
    {
      "bufferView": 0,
      "componentType": 5125,
      "count": 18267,
      "type": "SCALAR"
    },
    {
      "bufferView": 2,
      "byteOffset": 139848,
      "componentType": 5126,
      "count": 125,
      "max": [
        0.16144800186157227,
        1.1731899976730347,
        0.544035017490387
      ],
      "min": [
        -0.16144800186157227,
        0.9377539753913879,
        0.2149370014667511
      ],
      "type": "VEC3"
    },
    {
      "bufferView": 2,
      "byteOffset": 141348,
      "componentType": 5126,
      "count": 125,
      "max": [
        0.9909687638282776,
        0.9785565137863159,
        0.9343999624252319
      ],
      "min": [
        -0.9909679889678955,
        -0.6719281077384949,
        -0.9843883514404297
      ],
      "type": "VEC3"
    },
    {
      "bufferView": 1,
      "byteOffset": 46616,
      "componentType": 5126,
      "count": 125,
      "max": [
        0.7699999809265137,
        1.0
      ],
      "min": [
        0.0,
        0.0
      ],
      "type": "VEC2"
    },
    {
      "bufferView": 0,
      "byteOffset": 73068,
      "componentType": 5125,
      "count": 576,
      "type": "SCALAR"
    },
    {
      "bufferView": 2,
      "byteOffset": 142848,
      "componentType": 5126,
      "count": 7,
      "max": [
        -0.12047600001096725,
        0.9794120192527771,
        0.5043079853057861
      ],
      "min": [
        -0.33834901452064514,
        0.04857200011610985,
        0.0787540003657341
      ],
      "type": "VEC3"
    },
    {
      "bufferView": 2,
      "byteOffset": 142932,
      "componentType": 5126,
      "count": 7,
      "max": [
        0.26788330078125,
        0.18145398795604706,
        0.10594862699508667
      ],
      "min": [
        -0.976567804813385,
        -0.18732404708862305,
        -0.948287844657898
      ],
      "type": "VEC3"
    },
    {
      "bufferView": 1,
      "byteOffset": 47616,
      "componentType": 5126,
      "count": 7,
      "max": [
        0.4300999939441681,
        0.6220999956130981
      ],
      "min": [
        0.3230000138282776,
        0.0
      ],
      "type": "VEC2"
    },
    {
      "bufferView": 0,
      "byteOffset": 75372,
      "componentType": 5125,
      "count": 9,
      "type": "SCALAR"
    }
  ],
  "asset": {
    "extras": {
      "author": "MKModels (https://sketchfab.com/ProfessionalModels)",
      "license": "CC-BY-4.0 (http://creativecommons.org/licenses/by/4.0/)",
      "source": "https://sketchfab.com/3d-models/cow-3d-animated-model-free-download-92954a9b84494571ba7fdc2e62b4ff69",
      "title": "Cow 3d Animated Model Free Download"
    },
    "generator": "Sketchfab-15.49.0",
    "version": "2.0"
  },
  "bufferViews": [
    {
      "buffer": 0,
      "byteLength": 75408,
      "name": "floatBufferViews",
      "target": 34963
    },
    {
      "buffer": 0,
      "byteLength": 47672,
      "byteOffset": 75408,
      "byteStride": 8,
      "name": "floatBufferViews",
      "target": 34962
    },
    {
      "buffer": 0,
      "byteLength": 143016,
      "byteOffset": 123080,
      "byteStride": 12,
      "name": "floatBufferViews",
      "target": 34962
    }
  ],
  "buffers": [
    {
      "byteLength": 266096,
      "uri": "scene.bin"
    }
  ],
  "images": [
    {
      "uri": "textures/mat_0-colorOpacityCow.jpg_baseColor.jpeg"
    },
    {
      "uri": "textures/mat_1-cowEye.jpg_baseColor.jpeg"
    }
  ],
  "materials": [
    {
      "doubleSided": true,
      "name": "mat_0-colorOpacityCow.jpg",
      "pbrMetallicRoughness": {
        "baseColorTexture": {
          "index": 0
        },
        "metallicFactor": 0.0
      }
    },
    {
      "doubleSided": true,
      "name": "mat_1-cowEye.jpg",
      "pbrMetallicRoughness": {
        "baseColorTexture": {
          "index": 1
        },
        "metallicFactor": 0.0
      }
    },
    {
      "doubleSided": true,
      "name": "mat_2-colorOpacityCow.jpg",
      "pbrMetallicRoughness": {
        "baseColorTexture": {
          "index": 0
        },
        "metallicFactor": 0.0
      }
    }
  ],
  "meshes": [
    {
      "name": "Object_0",
      "primitives": [
        {
          "attributes": {
            "NORMAL": 1,
            "POSITION": 0,
            "TEXCOORD_0": 2
          },
          "indices": 3,
          "material": 0,
          "mode": 4
        }
      ]
    },
    {
      "name": "Object_1",
      "primitives": [
        {
          "attributes": {
            "NORMAL": 5,
            "POSITION": 4,
            "TEXCOORD_0": 6
          },
          "indices": 7,
          "material": 1,
          "mode": 4
        }
      ]
    },
    {
      "name": "Object_2",
      "primitives": [
        {
          "attributes": {
            "NORMAL": 9,
            "POSITION": 8,
            "TEXCOORD_0": 10
          },
          "indices": 11,
          "material": 2,
          "mode": 4
        }
      ]
    }
  ],
  "nodes": [
    {
      "children": [
        1
      ],
      "matrix": [
        1.0,
        0.0,
        0.0,
        0.0,
        0.0,
        2.220446049250313e-16,
        -1.0,
        0.0,
        0.0,
        1.0,
        2.220446049250313e-16,
        0.0,
        0.0,
        0.0,
        0.0,
        1.0
      ],
      "name": "Sketchfab_model"
    },
    {
      "children": [
        2,
        3,
        4
      ],
      "name": "Z8UBREE5B8GZEKWJ1L07BFSHY.obj.cleaner.materialmerger.gles"
    },
    {
      "mesh": 0,
      "name": "Object_2"
    },
    {
      "mesh": 1,
      "name": "Object_3"
    },
    {
      "mesh": 2,
      "name": "Object_4"
    }
  ],
  "samplers": [
    {
      "magFilter": 9729,
      "minFilter": 9987,
      "wrapS": 10497,
      "wrapT": 10497
    }
  ],
  "scene": 0,
  "scenes": [
    {
      "name": "Sketchfab_Scene",
      "nodes": [
        0
      ]
    }
  ],
  "textures": [
    {
      "sampler": 0,
      "source": 0
    },
    {
      "sampler": 0,
      "source": 1
    }
  ]
}
